<svg width="52" height="50" viewBox="0 0 52 50" fill="none" xmlns="http://www.w3.org/2000/svg">
<g clip-path="url(#clip0_116_151)">
<path d="M9.20833 0.00469971H42.7917C47.8833 0.00469971 52 4.0637 52 9.08403V40.9151C52 45.9354 47.8833 49.9944 42.7917 49.9944H9.20833C4.11667 49.9944 0 45.9354 0 40.9151V9.08403C0 4.0637 4.11667 0.00469971 9.20833 0.00469971Z" fill="#001E36"/>
<path d="M11.7002 35.062V13.0793C11.7002 12.9298 11.7652 12.8443 11.9169 12.8443C12.2852 12.8443 12.6319 12.8443 13.1302 12.8229C13.6502 12.8016 14.1919 12.8016 14.7769 12.7802C15.3619 12.7589 15.9902 12.7589 16.6619 12.7375C17.3335 12.7161 17.9835 12.7161 18.6335 12.7161C20.4102 12.7161 21.8835 12.9298 23.0969 13.3784C24.1802 13.7416 25.1769 14.3397 26.0002 15.1302C26.6935 15.8138 27.2352 16.6469 27.5819 17.5656C27.9069 18.4628 28.0802 19.3814 28.0802 20.3428C28.0802 22.18 27.6469 23.6968 26.7802 24.8931C25.9135 26.0894 24.7002 26.9867 23.2919 27.4994C21.8185 28.0335 20.1935 28.2258 18.4169 28.2258C17.8969 28.2258 17.5502 28.2258 17.3335 28.2044C17.1169 28.183 16.8135 28.183 16.4019 28.183V35.0406C16.4235 35.1901 16.3152 35.3183 16.1635 35.3397H11.9602C11.7869 35.3397 11.7002 35.2542 11.7002 35.062ZM16.4235 16.9674V24.1454C16.7269 24.1668 17.0085 24.1881 17.2685 24.1881H18.4169C19.2619 24.1881 20.1069 24.06 20.9085 23.8036C21.6019 23.6113 22.2085 23.2054 22.6852 22.6713C23.1402 22.1373 23.3569 21.4109 23.3569 20.4709C23.3785 19.8087 23.2052 19.1464 22.8585 18.5696C22.4902 18.0142 21.9702 17.5869 21.3419 17.3519C20.5402 17.0315 19.6735 16.9033 18.7852 16.9247C18.2219 16.9247 17.7235 16.9247 17.3119 16.946C16.8785 16.9247 16.5752 16.946 16.4235 16.9674ZM41.6002 22.8423C40.9502 22.5004 40.2569 22.2654 39.5202 22.1159C38.7185 21.945 37.9169 21.8382 37.0935 21.8382C36.6602 21.8168 36.2052 21.8809 35.7935 21.9877C35.5119 22.0518 35.2735 22.2014 35.1219 22.415C35.0135 22.5859 34.9485 22.7995 34.9485 22.9918C34.9485 23.1841 35.0352 23.3763 35.1652 23.5472C35.3602 23.7822 35.6202 23.9745 35.9019 24.124C36.4002 24.3804 36.9202 24.6154 37.4402 24.829C38.6102 25.2136 39.7369 25.7476 40.7769 26.3885C41.4919 26.8372 42.0769 27.4353 42.4885 28.1617C42.8352 28.8453 43.0085 29.593 42.9869 30.3621C43.0085 31.3661 42.7052 32.3702 42.1419 33.2034C41.5352 34.0579 40.6902 34.7202 39.7152 35.1047C38.6535 35.5533 37.3535 35.7883 35.7935 35.7883C34.7969 35.7883 33.8219 35.7029 32.8469 35.5106C32.0885 35.3824 31.3302 35.1474 30.6369 34.827C30.4852 34.7415 30.3769 34.592 30.3985 34.4211V30.7039C30.3985 30.6398 30.4202 30.5543 30.4852 30.5116C30.5502 30.4689 30.6152 30.4903 30.6802 30.533C31.5252 31.0243 32.4135 31.3661 33.3669 31.5798C34.1902 31.7934 35.0569 31.9002 35.9235 31.9002C36.7469 31.9002 37.3319 31.7934 37.7219 31.6011C38.0685 31.4516 38.3069 31.0884 38.3069 30.7039C38.3069 30.4048 38.1335 30.1271 37.7869 29.8494C37.4402 29.5716 36.7252 29.2512 35.6635 28.8453C34.5585 28.4608 33.5402 27.948 32.5869 27.3071C31.9152 26.8372 31.3519 26.2176 30.9402 25.4913C30.5935 24.8077 30.4202 24.06 30.4419 23.3122C30.4419 22.3936 30.7019 21.5177 31.1785 20.7273C31.7202 19.8728 32.5219 19.1892 33.4535 18.7619C34.4719 18.2492 35.7502 18.0142 37.2885 18.0142C38.1769 18.0142 39.0869 18.0783 39.9752 18.2065C40.6252 18.2919 41.2535 18.4628 41.8385 18.6978C41.9252 18.7192 42.0119 18.8046 42.0552 18.8901C42.0769 18.9755 42.0985 19.061 42.0985 19.1464V22.6286C42.0985 22.7141 42.0552 22.7995 41.9902 22.8423C41.7952 22.885 41.6869 22.885 41.6002 22.8423Z" fill="#31A8FF"/>
</g>
<defs>
<clipPath id="clip0_116_151">
<rect width="52" height="50" fill="white"/>
</clipPath>
</defs>
</svg>
