<svg width="52" height="50" viewBox="0 0 52 50" fill="none" xmlns="http://www.w3.org/2000/svg">
<g id="adobe-illustrator-cc-2019 1" clip-path="url(#clip0_116_195)">
<path id="Vector" d="M2.16675 2.14136H49.8335V47.8585H2.16675V2.14136Z" fill="url(#paint0_radial_116_195)"/>
<path id="Vector_2" d="M2.16688 2.14156H49.8336V47.8587H2.16688V2.14156ZM0.000244141 49.9951H52.0002V0.00527954H0.000244141V49.9951ZM34.0602 17.8222C34.0602 17.6513 34.1252 17.5657 34.3203 17.5657H37.7219C37.8951 17.5657 37.9819 17.6298 37.9819 17.8222V34.6777C37.9819 34.8485 37.9385 34.9341 37.7219 34.9341H34.3636C34.147 34.9341 34.0819 34.8273 34.0819 34.6564V17.8222H34.0602ZM33.8219 12.9727C33.8219 11.6055 34.7969 10.7937 36.032 10.7937C37.3536 10.7937 38.2419 11.6695 38.2419 12.9727C38.2419 14.3826 37.3103 15.1517 35.9886 15.1517C34.7319 15.1518 33.8219 14.3826 33.8219 12.9727ZM24.0719 24.8506C23.4653 22.4793 22.0353 17.3094 21.4936 14.8099H21.4502C20.9952 17.3094 19.847 21.5393 18.937 24.8506H24.0719ZM18.0486 28.3115L16.3369 34.7205C16.2936 34.8913 16.2286 34.934 16.0119 34.934H12.8269C12.6103 34.934 12.5669 34.8699 12.6103 34.6136L18.7636 13.3785C18.8719 12.994 18.9369 12.6522 18.9802 11.6055C18.9802 11.4559 19.0452 11.3919 19.1535 11.3919H23.7035C23.8552 11.3919 23.9202 11.4346 23.9636 11.6055L30.8535 34.6563C30.8969 34.8271 30.8535 34.934 30.6802 34.934H27.0835C26.9102 34.934 26.8018 34.8913 26.7586 34.7418L24.9819 28.3115H18.0486Z" fill="#FF7F18"/>
</g>
<defs>
<radialGradient id="paint0_radial_116_195" cx="0" cy="0" r="1" gradientUnits="userSpaceOnUse" gradientTransform="translate(17.8658 12.3866) scale(36.2267 34.5827)">
<stop stop-color="#423325" stop-opacity="0.98"/>
<stop offset="1" stop-color="#1C0A00"/>
</radialGradient>
<clipPath id="clip0_116_195">
<rect width="52" height="50" fill="white"/>
</clipPath>
</defs>
</svg>
