<svg width="52" height="52" viewBox="0 0 52 52" fill="none" xmlns="http://www.w3.org/2000/svg">
<g id="Frame" clip-path="url(#clip0_116_191)">
<g id="Group">
<path id="Vector" d="M26 52C40.3594 52 52 40.3594 52 26C52 11.6406 40.3594 0 26 0C11.6406 0 0 11.6406 0 26C0 40.3594 11.6406 52 26 52Z" fill="#4353FF"/>
<path id="Vector_2" d="M33.6373 22.9125L31.2811 30.3387C31.2811 29.77 29.6561 17.4525 29.6561 17.4525C25.9186 17.4525 23.9361 20.1012 22.8961 22.9125L20.0198 30.355C20.0198 29.8187 19.6136 22.9775 19.6136 22.9775C19.4749 21.4965 18.7978 20.1178 17.7107 19.1026C16.6236 18.0873 15.2018 17.506 13.7148 17.4687L16.7698 36.1237C20.6698 36.1237 22.7823 33.475 23.8711 30.6637L26.3086 24.3262C26.3086 24.5862 27.9336 36.1237 27.9336 36.1237C29.5284 36.1217 31.081 35.6119 32.3666 34.6681C33.6521 33.7244 34.6038 32.3959 35.0836 30.875L40.6086 17.4525C36.7086 17.4525 34.6611 20.1012 33.6211 22.9125H33.6373Z" fill="white"/>
</g>
</g>
<defs>
<clipPath id="clip0_116_191">
<rect width="52" height="52" fill="white"/>
</clipPath>
</defs>
</svg>
