<svg width="52" height="50" viewBox="0 0 52 50" fill="none" xmlns="http://www.w3.org/2000/svg">
<rect width="52" height="50" fill="#1E1E1E"/>
<g id="Landing Page">
<rect width="1920" height="1315" transform="translate(-221 -844)" fill="white"/>
<g id="Auto Layout Horizontal">
<g id="Frame" clip-path="url(#clip0_0_1)">
<path id="Vector" d="M2.16675 2.14148H49.8336V47.8587H2.16675V2.14148Z" fill="url(#paint0_radial_0_1)"/>
<path id="Vector_2" d="M2.16664 2.14123H49.8335V47.8585H2.16664V2.14123ZM0 49.9949H52.0001V0.00494385H0V49.9949ZM32.8901 20.7699C32.5651 20.6204 32.1317 20.5563 31.6117 20.5563C28.8167 20.5563 26.8667 22.6713 26.8667 26.1962C26.8667 30.2125 28.86 31.836 31.3518 31.836C31.8934 31.836 32.4567 31.7719 32.8901 31.5797V20.7699ZM31.7417 17.2878C32.1967 17.2878 32.4567 17.2878 32.89 17.3305V11.6479C32.89 11.4983 32.9983 11.4343 33.1066 11.4343H36.6166C36.7899 11.4343 36.8333 11.4983 36.8333 11.6051V31.5798C36.8333 32.1779 36.8333 32.9257 36.9416 33.7374C36.9416 33.887 36.8982 33.9083 36.7466 33.9938C34.8833 34.8697 32.9117 35.2543 31.07 35.2543C26.2817 35.2543 22.8583 32.3276 22.8583 26.3672C22.8367 21.2613 26.26 17.2878 31.7417 17.2878ZM19.0234 34.6561C19.0234 34.8696 18.9801 34.9338 18.7417 34.9338H15.4051C15.1884 34.9338 15.1233 34.827 15.1233 34.6561V11.7119C15.1233 11.4983 15.2317 11.4342 15.4051 11.4342H18.7634C18.9367 11.4342 19.0234 11.4983 19.0234 11.6906V34.6561Z" fill="#FF408C"/>
</g>
</g>
</g>
<defs>
<radialGradient id="paint0_radial_0_1" cx="0" cy="0" r="1" gradientUnits="userSpaceOnUse" gradientTransform="translate(17.8659 12.3868) scale(36.2268 34.5827)">
<stop stop-color="#4B2B36" stop-opacity="0.98"/>
<stop offset="1" stop-color="#250012"/>
</radialGradient>
<clipPath id="clip0_0_1">
<rect width="52" height="50" fill="white"/>
</clipPath>
</defs>
</svg>
