<svg width="52" height="52" viewBox="0 0 52 52" fill="none" xmlns="http://www.w3.org/2000/svg">
<g id="Iconscout Logo">
<path id="Vector" fill-rule="evenodd" clip-rule="evenodd" d="M30.0253 40.0862C29.8524 39.7903 29.5915 39.5557 29.279 39.415C28.9666 39.2743 28.618 39.2345 28.2818 39.3011C27.4781 39.454 26.6618 39.5309 25.8436 39.5308C18.4119 39.5308 12.4276 33.3313 12.7728 25.8187C13.0812 19.11 18.5217 13.6651 25.2254 13.3568C32.7336 13.0108 38.9288 19.0002 38.9288 26.4362C38.9288 29.6559 37.7675 32.604 35.8413 34.884C35.6216 35.1415 35.4867 35.4605 35.4552 35.7976C35.4237 36.1346 35.497 36.4731 35.6651 36.7669L39.4012 43.2423C40.0309 44.3336 41.6047 44.3336 42.2344 43.2423L51.0701 27.9283C51.357 27.4306 51.5081 26.8662 51.5081 26.2918C51.5081 25.7173 51.357 25.1529 51.0701 24.6552L39.8735 5.24836C39.5866 4.7507 39.1737 4.33737 38.6763 4.04995C38.179 3.76253 37.6147 3.61117 37.0402 3.61108H14.647C14.0727 3.61115 13.5086 3.76243 13.0114 4.04972C12.5141 4.33701 12.1013 4.75017 11.8144 5.24764L0.617831 24.6538C0.330633 25.1515 0.179443 25.716 0.179443 26.2907C0.179443 26.8653 0.330633 27.4299 0.617831 27.9276L11.8144 47.3344C12.1013 47.8319 12.5141 48.2451 13.0114 48.5323C13.5086 48.8196 14.0727 48.9709 14.647 48.971H32.3183C33.5779 48.971 34.3644 47.6074 33.7353 46.5154L30.0253 40.0862Z" fill="#6666FF"/>
<path id="Vector_2" fill-rule="evenodd" clip-rule="evenodd" d="M25.8434 19.8069C22.2301 19.8069 19.3008 22.7377 19.3008 26.3539C19.3008 29.9701 22.2301 32.9008 25.8441 32.9008C29.4574 32.9008 32.386 29.9701 32.386 26.3539C32.386 22.7377 29.4574 19.8069 25.8434 19.8069Z" fill="#6666FF"/>
</g>
</svg>
